<svg id="visual" viewBox="0 0 900 600" width="900" height="600" xmlns="http://www.w3.org/2000/svg" xmlns:xlink="http://www.w3.org/1999/xlink" version="1.1"><path d="M0 348L18.8 347.5C37.7 347 75.3 346 112.8 342.3C150.3 338.7 187.7 332.3 225.2 337C262.7 341.7 300.3 357.3 337.8 368.5C375.3 379.7 412.7 386.3 450.2 380C487.7 373.7 525.3 354.3 562.8 347.5C600.3 340.7 637.7 346.3 675.2 349.2C712.7 352 750.3 352 787.8 356.5C825.3 361 862.7 370 881.3 374.5L900 379L900 601L881.3 601C862.7 601 825.3 601 787.8 601C750.3 601 712.7 601 675.2 601C637.7 601 600.3 601 562.8 601C525.3 601 487.7 601 450.2 601C412.7 601 375.3 601 337.8 601C300.3 601 262.7 601 225.2 601C187.7 601 150.3 601 112.8 601C75.3 601 37.7 601 18.8 601L0 601Z" fill="#ffd09e"></path><path d="M0 386L18.8 389.3C37.7 392.7 75.3 399.3 112.8 403.2C150.3 407 187.7 408 225.2 405.7C262.7 403.3 300.3 397.7 337.8 402.3C375.3 407 412.7 422 450.2 420.8C487.7 419.7 525.3 402.3 562.8 393.5C600.3 384.7 637.7 384.3 675.2 392.3C712.7 400.3 750.3 416.7 787.8 422.3C825.3 428 862.7 423 881.3 420.5L900 418L900 601L881.3 601C862.7 601 825.3 601 787.8 601C750.3 601 712.7 601 675.2 601C637.7 601 600.3 601 562.8 601C525.3 601 487.7 601 450.2 601C412.7 601 375.3 601 337.8 601C300.3 601 262.7 601 225.2 601C187.7 601 150.3 601 112.8 601C75.3 601 37.7 601 18.8 601L0 601Z" fill="#ffb3a0"></path><path d="M0 425L18.8 424.5C37.7 424 75.3 423 112.8 432.5C150.3 442 187.7 462 225.2 471.7C262.7 481.3 300.3 480.7 337.8 473.8C375.3 467 412.7 454 450.2 444.8C487.7 435.7 525.3 430.3 562.8 429.2C600.3 428 637.7 431 675.2 438.2C712.7 445.3 750.3 456.7 787.8 460.2C825.3 463.7 862.7 459.3 881.3 457.2L900 455L900 601L881.3 601C862.7 601 825.3 601 787.8 601C750.3 601 712.7 601 675.2 601C637.7 601 600.3 601 562.8 601C525.3 601 487.7 601 450.2 601C412.7 601 375.3 601 337.8 601C300.3 601 262.7 601 225.2 601C187.7 601 150.3 601 112.8 601C75.3 601 37.7 601 18.8 601L0 601Z" fill="#ff9bb7"></path><path d="M0 491L18.8 488.8C37.7 486.7 75.3 482.3 112.8 483.7C150.3 485 187.7 492 225.2 496C262.7 500 300.3 501 337.8 498.7C375.3 496.3 412.7 490.7 450.2 485.5C487.7 480.3 525.3 475.7 562.8 478.7C600.3 481.7 637.7 492.3 675.2 498.2C712.7 504 750.3 505 787.8 509.5C825.3 514 862.7 522 881.3 526L900 530L900 601L881.3 601C862.7 601 825.3 601 787.8 601C750.3 601 712.7 601 675.2 601C637.7 601 600.3 601 562.8 601C525.3 601 487.7 601 450.2 601C412.7 601 375.3 601 337.8 601C300.3 601 262.7 601 225.2 601C187.7 601 150.3 601 112.8 601C75.3 601 37.7 601 18.8 601L0 601Z" fill="#e590db"></path><path d="M0 573L18.8 564.8C37.7 556.7 75.3 540.3 112.8 540.2C150.3 540 187.7 556 225.2 556C262.7 556 300.3 540 337.8 533.5C375.3 527 412.7 530 450.2 530.3C487.7 530.7 525.3 528.3 562.8 531.3C600.3 534.3 637.7 542.7 675.2 544.5C712.7 546.3 750.3 541.7 787.8 538.5C825.3 535.3 862.7 533.7 881.3 532.8L900 532L900 601L881.3 601C862.7 601 825.3 601 787.8 601C750.3 601 712.7 601 675.2 601C637.7 601 600.3 601 562.8 601C525.3 601 487.7 601 450.2 601C412.7 601 375.3 601 337.8 601C300.3 601 262.7 601 225.2 601C187.7 601 150.3 601 112.8 601C75.3 601 37.7 601 18.8 601L0 601Z" fill="#9e95ff"></path></svg>